<svg id="Layer_1" data-name="Layer 1" xmlns="http://www.w3.org/2000/svg" viewBox="0 0 512 165"><defs><style>.cls-1{fill:#fff;}</style></defs><title>linovHR_logo</title><path class="cls-1" d="M35.32,121H79.69v6.42h-52V37.54h7.65Z"/><path class="cls-1" d="M92.1,41.34a4.94,4.94,0,0,1,1.36-3.53,4.82,4.82,0,0,1,3.7-1.44,4.93,4.93,0,0,1,3.73,1.44,4.88,4.88,0,0,1,1.39,3.53,4.76,4.76,0,0,1-1.39,3.49,5,5,0,0,1-3.73,1.41,4.88,4.88,0,0,1-3.7-1.41A4.81,4.81,0,0,1,92.1,41.34Zm8.7,86.06H93.39V60.62h7.41Z"/><path class="cls-1" d="M127.89,60.62,128.14,72a26.58,26.58,0,0,1,9.38-9.41,24.37,24.37,0,0,1,12.4-3.24q10.74,0,16,6t5.31,18.14V127.4h-7.35V83.52q-.06-9-3.79-13.33t-12-4.38A18.68,18.68,0,0,0,136,70.1a25.11,25.11,0,0,0-7.81,11.57V127.4h-7.34V60.62Z"/><path class="cls-1" d="M186.21,93A39.26,39.26,0,0,1,190,75.68a28,28,0,0,1,26-16.29q13.33,0,21.6,9.35t8.27,24.78v1.54a39.73,39.73,0,0,1-3.73,17.43,27.87,27.87,0,0,1-10.53,12,28.9,28.9,0,0,1-15.49,4.19q-13.26,0-21.57-9.35t-8.3-24.78Zm7.41,2q0,12,6.2,19.65a21,21,0,0,0,32.46,0q6.21-7.68,6.2-20.27V93a34,34,0,0,0-2.83-14,22.9,22.9,0,0,0-8-9.84A20.41,20.41,0,0,0,216,65.68a19.76,19.76,0,0,0-16.11,7.75q-6.22,7.74-6.23,20.27Z"/><path class="cls-1" d="M280.94,117.21l20.31-56.59h7.59L283.91,127.4h-6L252.86,60.62h7.6Z"/><path class="cls-1" d="M398.12,127.4H382.56V87.53H342.39V127.4H326.77V37.54h15.62v37.4h40.17V37.54h15.56Z"/><path class="cls-1" d="M449.59,92.84H432.18V127.4H416.57V37.54h31.6q15.56,0,24,7t8.46,20.2q0,9-4.35,15.1a27.61,27.61,0,0,1-12.13,9.36l20.18,37.42v.8H467.61ZM432.18,80.25h16.05q7.9,0,12.34-4T465,65.37q0-7.22-4.11-11.17t-12.25-4.07H432.18Z"/></svg>